<svg xmlns="http://www.w3.org/2000/svg" viewBox="0 0 600 400" width="600" height="400" role="img" aria-label="Illustrazione: pennelli da trucco e palette colori">
  <rect width="600" height="400" fill="#faeef0"/>
  <circle cx="488" cy="104" r="76" fill="#ffffff" opacity=".6"/>
  <rect x="0" y="306" width="600" height="94" fill="#ecd9dd"/>
  <g>
    <rect x="300" y="196" width="196" height="112" rx="16" fill="#ffffff" stroke="#e2c6cf" stroke-width="2"/>
    <g>
      <circle cx="344" cy="232" r="19" fill="#c96f8c"/>
      <circle cx="392" cy="232" r="19" fill="#d99a7d"/>
      <circle cx="440" cy="232" r="19" fill="#b08d57"/>
      <circle cx="344" cy="278" r="19" fill="#8f5f72"/>
      <circle cx="392" cy="278" r="19" fill="#e0b9c6"/>
      <circle cx="440" cy="278" r="19" fill="#6d4a58"/>
    </g>
  </g>
  <g transform="rotate(-16 170 260)">
    <rect x="132" y="120" width="20" height="120" rx="9" fill="#3d2b36"/>
    <rect x="132" y="232" width="20" height="24" fill="#b08d57"/>
    <path d="M132 256h20l-4 44a6 6 0 0 1-12 0Z" fill="#f0cbd8"/>
  </g>
  <g transform="rotate(-2 210 250)">
    <rect x="200" y="144" width="18" height="108" rx="8" fill="#93395f"/>
    <rect x="200" y="244" width="18" height="20" fill="#d9bb8e"/>
    <path d="M200 264h18l-3 42a6 6 0 0 1-12 0Z" fill="#f6e0e7"/>
  </g>
  <g transform="rotate(13 252 258)">
    <rect x="244" y="160" width="16" height="96" rx="7" fill="#2e2029"/>
    <rect x="244" y="248" width="16" height="18" fill="#b08d57"/>
    <path d="M244 266h16l-3 38a5 5 0 0 1-10 0Z" fill="#eec4d3"/>
  </g>
  <g opacity=".6" fill="#e6adc2">
    <circle cx="98" cy="118" r="9"/><circle cx="128" cy="86" r="5"/><circle cx="72" cy="90" r="6"/>
  </g>
</svg>
